<svg width="577" height="262" viewBox="0 0 577 262" fill="none" xmlns="http://www.w3.org/2000/svg">
<path d="M80.0923 28.9666L33.9347 187.219H576.967V212.674H0L55.6605 21.8359L80.0923 28.9666Z" fill="url(#paint0_linear_3244_4452)"/>
<path d="M134.365 165.898C124.245 174.835 115.16 179.304 107.11 179.304C102.376 179.304 98.4398 177.765 95.3029 174.688C92.1661 171.551 90.5977 167.644 90.5977 162.969C90.5977 156.636 93.3202 150.954 98.7653 145.923C104.21 140.833 116.077 134.086 134.365 125.682V117.337C134.365 111.063 134.01 107.127 133.3 105.529C132.649 103.872 131.377 102.451 129.483 101.268C127.589 100.025 125.458 99.4034 123.091 99.4034C119.243 99.4034 116.077 100.262 113.591 101.978C112.052 103.043 111.283 104.286 111.283 105.707C111.283 106.95 112.112 108.488 113.769 110.323C116.018 112.868 117.142 115.324 117.142 117.692C117.142 120.592 116.047 123.078 113.858 125.149C111.727 127.161 108.916 128.168 105.424 128.168C101.695 128.168 98.5581 127.043 96.0131 124.794C93.5273 122.545 92.2844 119.911 92.2844 116.893C92.2844 112.631 93.9712 108.577 97.3448 104.73C100.718 100.824 105.424 97.835 111.461 95.7635C117.498 93.692 123.771 92.6562 130.282 92.6562C138.153 92.6562 144.368 94.343 148.925 97.7166C153.542 101.031 156.53 104.641 157.892 108.548C158.72 111.033 159.135 116.745 159.135 125.682V157.908C159.135 161.696 159.283 164.093 159.578 165.099C159.874 166.046 160.318 166.757 160.91 167.23C161.502 167.704 162.183 167.94 162.952 167.94C164.491 167.94 166.059 166.845 167.657 164.656L170.321 166.786C167.361 171.166 164.284 174.362 161.088 176.374C157.951 178.327 154.37 179.304 150.346 179.304C145.611 179.304 141.912 178.209 139.248 176.019C136.585 173.77 134.957 170.397 134.365 165.898ZM134.365 159.418V131.63C127.204 135.832 121.877 140.33 118.385 145.124C116.077 148.32 114.923 151.546 114.923 154.801C114.923 157.524 115.9 159.921 117.853 161.992C119.332 163.59 121.404 164.389 124.067 164.389C127.026 164.389 130.459 162.732 134.365 159.418Z" fill="url(#paint1_linear_3244_4452)"/>
<path d="M519.118 57.75V105.779C523.675 100.985 527.847 97.6115 531.635 95.6584C535.423 93.6461 539.359 92.6399 543.443 92.6399C548.651 92.6399 553.09 94.1196 556.76 97.0788C560.488 100.038 562.944 103.53 564.128 107.555C565.371 111.52 565.993 118.238 565.993 127.707V160.112C565.993 166.444 566.584 170.41 567.768 172.008C568.952 173.547 571.349 174.523 574.959 174.938V178.134H532.878V174.938C535.837 174.523 538.057 173.339 539.537 171.386C540.602 169.848 541.135 166.089 541.135 160.112V123.091C541.135 116.225 540.868 111.934 540.336 110.218C539.803 108.442 538.886 107.081 537.583 106.134C536.341 105.128 534.92 104.625 533.322 104.625C530.955 104.625 528.646 105.454 526.397 107.111C524.148 108.709 521.722 111.55 519.118 115.634V160.112C519.118 166.03 519.561 169.729 520.449 171.209C521.574 173.221 523.882 174.464 527.374 174.938V178.134H485.293V174.938C488.785 174.582 491.271 173.458 492.75 171.564C493.757 170.262 494.26 166.444 494.26 160.112V75.772C494.26 69.4983 493.668 65.5921 492.484 64.0533C491.359 62.5144 488.962 61.5083 485.293 61.0348V57.75H519.118Z" fill="url(#paint2_linear_3244_4452)"/>
<path d="M472.181 156.754L474.933 158.885C471.027 166.224 466.144 171.699 460.285 175.309C454.485 178.86 448.3 180.636 441.73 180.636C430.662 180.636 421.814 176.463 415.185 168.118C408.557 159.773 405.242 149.741 405.242 138.022C405.242 126.718 408.261 116.774 414.298 108.192C421.577 97.835 431.609 92.6562 444.393 92.6562C452.975 92.6562 459.782 94.8165 464.812 99.1371C469.902 103.458 472.447 108.281 472.447 113.608C472.447 116.982 471.412 119.674 469.34 121.687C467.328 123.699 464.665 124.705 461.35 124.705C457.858 124.705 454.958 123.551 452.65 121.243C450.401 118.935 449.01 114.821 448.477 108.903C448.122 105.174 447.264 102.57 445.903 101.09C444.541 99.6106 442.943 98.8707 441.109 98.8707C438.268 98.8707 435.841 100.38 433.829 103.398C430.751 107.956 429.212 114.94 429.212 124.35C429.212 132.163 430.455 139.65 432.941 146.811C435.427 153.913 438.83 159.21 443.151 162.702C446.406 165.247 450.253 166.52 454.692 166.52C457.592 166.52 460.344 165.839 462.948 164.478C465.552 163.117 468.63 160.542 472.181 156.754Z" fill="url(#paint3_linear_3244_4452)"/>
<path d="M376.83 64.7969V95.1591H396.538V103.948H376.83V155.173C376.83 159.967 377.037 163.075 377.451 164.495C377.924 165.856 378.723 166.981 379.848 167.869C380.973 168.697 382.008 169.112 382.955 169.112C386.802 169.112 390.442 166.182 393.875 160.322L396.538 162.276C391.744 173.639 383.961 179.321 373.19 179.321C367.922 179.321 363.454 177.871 359.784 174.971C356.174 172.012 353.866 168.727 352.859 165.117C352.268 163.104 351.972 157.659 351.972 148.781V103.948H341.141V100.841C348.598 95.5734 354.931 90.0395 360.139 84.2394C365.407 78.4392 369.994 71.9583 373.9 64.7969H376.83Z" fill="url(#paint4_linear_3244_4452)"/>
<path d="M333.421 133.672H287.877C288.41 144.68 291.34 153.381 296.667 159.773C300.75 164.685 305.663 167.141 311.404 167.141C314.955 167.141 318.181 166.165 321.081 164.212C323.981 162.199 327.088 158.619 330.402 153.469L333.421 155.423C328.923 164.596 323.951 171.107 318.506 174.954C313.061 178.742 306.758 180.636 299.596 180.636C287.286 180.636 277.964 175.901 271.631 166.431C266.541 158.796 263.996 149.326 263.996 138.022C263.996 124.173 267.725 113.164 275.182 104.996C282.699 96.7696 291.488 92.6562 301.549 92.6562C309.954 92.6562 317.234 96.1186 323.389 103.043C329.603 109.909 332.947 120.118 333.421 133.672ZM311.581 127.724C311.581 118.195 311.049 111.655 309.983 108.104C308.977 104.553 307.379 101.86 305.189 100.025C303.946 98.9595 302.289 98.4268 300.218 98.4268C297.14 98.4268 294.625 99.9361 292.672 102.955C289.18 108.222 287.434 115.443 287.434 124.616V127.724H311.581Z" fill="url(#paint5_linear_3244_4452)"/>
<path d="M253.335 69.0469V90.8651H206.282L209.698 261.554L187.88 261.994L184.023 69.0469H253.335Z" fill="url(#paint6_linear_3244_4452)"/>
<path d="M242.431 134.875V148.141H207.055V134.875H242.431Z" fill="url(#paint7_linear_3244_4452)"/>
<defs>
<linearGradient id="paint0_linear_3244_4452" x1="0" y1="117.255" x2="576.967" y2="117.255" gradientUnits="userSpaceOnUse">
<stop stop-color="#EBE9E7"/>
<stop offset="1" stop-color="#F9F9F9"/>
</linearGradient>
<linearGradient id="paint1_linear_3244_4452" x1="90.5977" y1="135.98" x2="170.321" y2="135.98" gradientUnits="userSpaceOnUse">
<stop stop-color="#EBE9E7"/>
<stop offset="1" stop-color="#F9F9F9"/>
</linearGradient>
<linearGradient id="paint2_linear_3244_4452" x1="485.293" y1="117.942" x2="574.959" y2="117.942" gradientUnits="userSpaceOnUse">
<stop stop-color="#EBE9E7"/>
<stop offset="1" stop-color="#F9F9F9"/>
</linearGradient>
<linearGradient id="paint3_linear_3244_4452" x1="405.242" y1="136.646" x2="474.933" y2="136.646" gradientUnits="userSpaceOnUse">
<stop stop-color="#EBE9E7"/>
<stop offset="1" stop-color="#F9F9F9"/>
</linearGradient>
<linearGradient id="paint4_linear_3244_4452" x1="341.141" y1="122.059" x2="396.538" y2="122.059" gradientUnits="userSpaceOnUse">
<stop stop-color="#EBE9E7"/>
<stop offset="1" stop-color="#F9F9F9"/>
</linearGradient>
<linearGradient id="paint5_linear_3244_4452" x1="263.996" y1="136.646" x2="333.421" y2="136.646" gradientUnits="userSpaceOnUse">
<stop stop-color="#EBE9E7"/>
<stop offset="1" stop-color="#F9F9F9"/>
</linearGradient>
<linearGradient id="paint6_linear_3244_4452" x1="184.023" y1="165.521" x2="253.335" y2="165.521" gradientUnits="userSpaceOnUse">
<stop stop-color="#EBE9E7"/>
<stop offset="1" stop-color="#F9F9F9"/>
</linearGradient>
<linearGradient id="paint7_linear_3244_4452" x1="207.055" y1="141.508" x2="242.431" y2="141.508" gradientUnits="userSpaceOnUse">
<stop stop-color="#EBE9E7"/>
<stop offset="1" stop-color="#F9F9F9"/>
</linearGradient>
</defs>
</svg>
