<svg width="97" height="41" viewBox="0 0 97 41" fill="none" xmlns="http://www.w3.org/2000/svg">
<path d="M13.4129 1.19416L5.68297 27.6964H96.6235V31.9593H0L9.32135 0L13.4129 1.19416Z" fill="#0F0F0F"/>
<path d="M22.5016 24.1251C20.8067 25.6218 19.2852 26.3701 17.9372 26.3701C17.1443 26.3701 16.4852 26.1124 15.9599 25.597C15.4345 25.0717 15.1719 24.4175 15.1719 23.6345C15.1719 22.5739 15.6278 21.6224 16.5397 20.7799C17.4516 19.9275 19.4389 18.7976 22.5016 17.3901V15.9926C22.5016 14.9419 22.4421 14.2828 22.3232 14.0152C22.2141 13.7376 22.001 13.4998 21.6839 13.3015C21.3667 13.0934 21.0099 12.9893 20.6134 12.9893C19.9691 12.9893 19.4389 13.133 19.0226 13.4205C18.7649 13.5989 18.636 13.807 18.636 14.0449C18.636 14.253 18.7748 14.5108 19.0523 14.818C19.4289 15.2442 19.6173 15.6556 19.6173 16.052C19.6173 16.5377 19.4339 16.954 19.0672 17.3009C18.7103 17.6379 18.2395 17.8064 17.6548 17.8064C17.0303 17.8064 16.505 17.6181 16.0788 17.2414C15.6625 16.8648 15.4544 16.4237 15.4544 15.9182C15.4544 15.2046 15.7368 14.5256 16.3018 13.8814C16.8668 13.2272 17.6548 12.7266 18.6657 12.3797C19.6767 12.0328 20.7274 11.8594 21.8177 11.8594C23.1359 11.8594 24.1766 12.1419 24.9398 12.7068C25.713 13.2619 26.2135 13.8665 26.4415 14.5207C26.5802 14.937 26.6496 15.8934 26.6496 17.3901V22.787C26.6496 23.4214 26.6744 23.8228 26.724 23.9913C26.7735 24.1499 26.8478 24.2688 26.947 24.3481C27.0461 24.4274 27.1601 24.467 27.2889 24.467C27.5466 24.467 27.8093 24.2837 28.0769 23.9169L28.5229 24.2738C28.0273 25.0072 27.5119 25.5425 26.9767 25.8795C26.4514 26.2066 25.8517 26.3701 25.1777 26.3701C24.3848 26.3701 23.7653 26.1867 23.3193 25.82C22.8733 25.4433 22.6007 24.8784 22.5016 24.1251ZM22.5016 23.0398V18.3862C21.3023 19.09 20.4102 19.8432 19.8254 20.6461C19.4389 21.1813 19.2456 21.7215 19.2456 22.2667C19.2456 22.7226 19.4091 23.124 19.7362 23.4709C19.984 23.7385 20.3309 23.8723 20.7769 23.8723C21.2725 23.8723 21.8474 23.5948 22.5016 23.0398Z" fill="#0F0F0F"/>
<path d="M86.9341 6.01562V14.059C87.6973 13.2561 88.396 12.6911 89.0304 12.3641C89.6647 12.0271 90.3239 11.8586 91.0078 11.8586C91.88 11.8586 92.6234 12.1064 93.2379 12.6019C93.8623 13.0975 94.2737 13.6823 94.4719 14.3563C94.68 15.0204 94.7841 16.1454 94.7841 17.7312V23.1579C94.7841 24.2184 94.8832 24.8825 95.0815 25.1501C95.2797 25.4079 95.6811 25.5714 96.2857 25.6408V26.176H89.2385V25.6408C89.7341 25.5714 90.1058 25.3732 90.3536 25.0461C90.532 24.7884 90.6212 24.159 90.6212 23.1579V16.9581C90.6212 15.8084 90.5766 15.0898 90.4874 14.8023C90.3982 14.505 90.2446 14.277 90.0265 14.1184C89.8184 13.9499 89.5805 13.8657 89.3129 13.8657C88.9164 13.8657 88.5298 14.0044 88.1532 14.282C87.7766 14.5496 87.3702 15.0254 86.9341 15.7093V23.1579C86.9341 24.1491 87.0084 24.7685 87.1571 25.0163C87.3454 25.3533 87.732 25.5615 88.3167 25.6408V26.176H81.2695V25.6408C81.8543 25.5813 82.2706 25.393 82.5184 25.0758C82.6869 24.8578 82.7712 24.2184 82.7712 23.1579V9.03374C82.7712 7.9831 82.672 7.32892 82.4738 7.07122C82.2855 6.81352 81.8841 6.64502 81.2695 6.56572V6.01562H86.9341Z" fill="#0F0F0F"/>
<path d="M79.0734 22.5937L79.5343 22.9506C78.8801 24.1796 78.0624 25.0964 77.0812 25.7011C76.1098 26.2958 75.074 26.5931 73.9738 26.5931C72.1204 26.5931 70.6386 25.8943 69.5284 24.4968C68.4183 23.0992 67.8633 21.4192 67.8633 19.4567C67.8633 17.5636 68.3688 15.8984 69.3798 14.4612C70.5989 12.7266 72.2789 11.8594 74.4199 11.8594C75.8571 11.8594 76.9969 12.2212 77.8394 12.9447C78.6918 13.6683 79.118 14.4761 79.118 15.3681C79.118 15.9331 78.9446 16.3841 78.5976 16.7211C78.2606 17.0581 77.8146 17.2266 77.2596 17.2266C76.6748 17.2266 76.1891 17.0333 75.8025 16.6467C75.4259 16.2602 75.193 15.5713 75.1038 14.5801C75.0443 13.9557 74.9006 13.5196 74.6726 13.2718C74.4446 13.024 74.177 12.9001 73.8698 12.9001C73.394 12.9001 72.9876 13.1529 72.6506 13.6583C72.1352 14.4215 71.8775 15.5911 71.8775 17.1671C71.8775 18.4754 72.0857 19.7293 72.502 20.9286C72.9182 22.118 73.4882 23.0051 74.2117 23.5899C74.7569 24.0161 75.4011 24.2292 76.1445 24.2292C76.6302 24.2292 77.0911 24.1152 77.5272 23.8872C77.9633 23.6592 78.4787 23.2281 79.0734 22.5937Z" fill="#0F0F0F"/>
<path d="M63.1057 7.19531V12.28H66.4062V13.7519H63.1057V22.3305C63.1057 23.1333 63.1403 23.6537 63.2097 23.8916C63.289 24.1195 63.4228 24.3078 63.6112 24.4565C63.7995 24.5953 63.9729 24.6647 64.1315 24.6647C64.7758 24.6647 65.3853 24.174 65.9602 23.1928L66.4062 23.5199C65.6034 25.4229 64.3 26.3744 62.4961 26.3744C61.6139 26.3744 60.8656 26.1316 60.2511 25.6459C59.6465 25.1503 59.2599 24.6002 59.0914 23.9956C58.9923 23.6586 58.9427 22.7468 58.9427 21.26V13.7519H57.1289V13.2315C58.3778 12.3494 59.4383 11.4226 60.3106 10.4513C61.1927 9.47996 61.9609 8.39463 62.615 7.19531H63.1057Z" fill="#0F0F0F"/>
<path d="M55.8334 18.7282H48.2064C48.2956 20.5718 48.7862 22.0288 49.6783 23.0992C50.3622 23.9219 51.1849 24.3332 52.1463 24.3332C52.741 24.3332 53.2812 24.1697 53.7669 23.8426C54.2525 23.5056 54.7729 22.906 55.328 22.0436L55.8334 22.3707C55.0802 23.907 54.2476 24.9973 53.3357 25.6416C52.4238 26.2759 51.3682 26.5931 50.1689 26.5931C48.1073 26.5931 46.5462 25.8002 45.4856 24.2143C44.6332 22.9357 44.207 21.3498 44.207 19.4567C44.207 17.1374 44.8315 15.2938 46.0803 13.926C47.3391 12.5482 48.811 11.8594 50.496 11.8594C51.9035 11.8594 53.1226 12.4392 54.1534 13.5989C55.1941 14.7486 55.7542 16.4584 55.8334 18.7282ZM52.176 17.7321C52.176 16.1363 52.0868 15.041 51.9084 14.4463C51.7399 13.8516 51.4723 13.4006 51.1056 13.0934C50.8974 12.915 50.6199 12.8258 50.273 12.8258C49.7576 12.8258 49.3363 13.0785 49.0092 13.584C48.4245 14.4662 48.1321 15.6754 48.1321 17.2117V17.7321H52.176Z" fill="#0F0F0F"/>
<path d="M42.4238 7.90625V11.5601H34.544L35.1161 40.145L31.4623 40.2188L30.8164 7.90625H42.4238Z" fill="#0F0F0F"/>
<path d="M40.5968 18.8672V21.3031H33.2891V18.8672H40.5968Z" fill="#0F0F0F"/>
</svg>
